<svg width="106" height="83" viewBox="0 0 106 83" fill="none" xmlns="http://www.w3.org/2000/svg">
<path d="M102.601 14.0454L78.847 14.0454" stroke="black" stroke-width="1.19767"/>
<path d="M103 68.34L79.2461 68.34" stroke="black" stroke-width="1.19767"/>
<path d="M86.8314 68.947L86.8314 51.7804" stroke="black" stroke-width="1.19767"/>
<path d="M86.8314 13.854L86.8314 31.0207" stroke="black" stroke-width="1.19767"/>
<path d="M24.9515 74.5363L-1.1161e-05 74.5363M24.9515 62.5595L11.3779 62.5595" stroke="black" stroke-width="1.19767"/>
<path d="M32.936 20.2416L11.7771 20.2416M32.936 8.26489L-1.33554e-05 8.2649" stroke="black" stroke-width="1.19767"/>
<path d="M11.3779 19.8424L11.3779 31.7886L86.8314 52.1796" stroke="black" stroke-width="1.19767"/>
<path d="M11.3779 62.9587L11.3779 51.0124L86.8314 30.6215" stroke="black" stroke-width="1.19767"/>
<ellipse cx="76.5" cy="68.5" rx="3.5" ry="3.5" transform="rotate(180 76.5 68.5)" fill="#0AF0FF"/>
<ellipse cx="76.5" cy="13.5" rx="3.5" ry="3.5" transform="rotate(180 76.5 13.5)" fill="#0AF0FF"/>
<path d="M74.0562 68.5479C74.0562 76.2649 67.8003 82.5208 60.0833 82.5208L25.3507 82.5208C24.9098 82.5208 24.5523 82.1633 24.5523 81.7223L24.5523 55.3735C24.5523 54.9325 24.9098 54.575 25.3507 54.575L60.0833 54.575C67.8003 54.575 74.0562 60.8309 74.0562 68.5479Z" fill="#0AF0FF"/>
<path fill-rule="evenodd" clip-rule="evenodd" d="M33.103 14.0907C33.0593 21.8076 29.4693 28.0433 25.0846 28.0185C24.9884 28.018 24.8926 28.0144 24.7972 28.0079L24.7972 28.0178L61.662 28.2261L61.6622 28.1798C67.7338 28.0917 69.2513 25.1537 72.8372 18.2111C73.4406 17.0428 74.1026 15.7612 74.8547 14.3607C73.593 12.2169 72.5979 10.3541 71.7406 8.74939C68.65 2.96394 67.3521 0.534415 61.8197 0.393939L61.8204 0.280786L25.3336 0.0746217C29.6761 0.184691 33.1465 6.4271 33.103 14.0907ZM24.9556 0.0724855L25.1523 0.0735975C25.0865 0.0745206 25.0209 0.0768533 24.9555 0.0805784L24.9556 0.0724855Z" fill="#0AF0FF"/>
<path d="M104.494 16.072C104.11 16.072 103.808 15.9 103.588 15.556C103.372 15.208 103.264 14.714 103.264 14.074C103.264 13.43 103.372 12.94 103.588 12.604C103.808 12.268 104.11 12.1 104.494 12.1C104.874 12.1 105.172 12.268 105.388 12.604C105.608 12.94 105.718 13.43 105.718 14.074C105.718 14.714 105.608 15.208 105.388 15.556C105.172 15.9 104.874 16.072 104.494 16.072ZM104.494 15.676C104.718 15.676 104.898 15.55 105.034 15.298C105.17 15.042 105.238 14.634 105.238 14.074C105.238 13.514 105.17 13.112 105.034 12.868C104.898 12.62 104.718 12.496 104.494 12.496C104.27 12.496 104.088 12.62 103.948 12.868C103.812 13.112 103.744 13.514 103.744 14.074C103.744 14.634 103.812 15.042 103.948 15.298C104.088 15.55 104.27 15.676 104.494 15.676Z" fill="black"/>
<path d="M103.474 70V69.592H104.35V66.772H103.654V66.454C103.83 66.422 103.982 66.384 104.11 66.34C104.242 66.292 104.36 66.236 104.464 66.172H104.842V69.592H105.634V70H103.474Z" fill="#0AF0FF"/>
</svg>
